<?xml version="1.0" encoding="utf-8"?>
<!-- Generator: Adobe Illustrator 24.3.0, SVG Export Plug-In . SVG Version: 6.00 Build 0)  -->
<svg version="1.1" id="Capa_1" xmlns="http://www.w3.org/2000/svg" xmlns:xlink="http://www.w3.org/1999/xlink" x="0px" y="0px"
	 viewBox="0 0 400 300" style="enable-background:new 0 0 400 300;" xml:space="preserve">
<style type="text/css">
	.st0{fill:#FFFFFF;}
	.st1{fill:#FF0000;}
	.st2{fill:#FF0606;}
</style>
<g>
	<g>
		<path class="st0" d="M49.23,106.73c0.49-5.82,6.72-9.09,11.48-11.12c6.8-2.9,13.86-5.32,20.86-7.69
			c14.38-4.87,29.04-8.93,43.92-11.96c29.06-5.91,59.11-7.78,88.55-3.75c28.01,3.83,55.45,12.85,79.48,27.88
			c5.55,3.47,10.95,7.31,15.35,12.19c4.09,4.54,8.99,11.71,7.05,18.13c-1.63,5.39-7.55,8.38-12.42,10.23
			c-6.93,2.63-14.21,4.52-21.47,5.96c-7.51,1.5-15.12,2.43-22.76,2.86c-7.32,0.41-14.76,0.53-22.06-0.26
			c-6.55-0.71-13.56-2.46-18.73-6.78c-4.23-3.53-7.28-8.89-7.44-14.47c-0.08-2.67,0.55-5.21,1.93-7.5c-0.79,0.1-1.57,0.2-2.36,0.3
			c1.4,1.32-0.24,3.34-1.62,3.84c-2.32,0.84-5.19,0.21-7.57-0.01c-5.73-0.53-11.46-1.07-17.18-1.6c-1.92-0.18-1.91,2.82,0,3
			c3.7,0.34,7.4,0.69,11.1,1.03c3.46,0.32,6.95,0.8,10.43,0.93c2.71,0.1,5.64-0.46,7.29-2.82c1.38-1.97,1.49-4.77-0.33-6.5
			c-0.71-0.67-1.85-0.54-2.36,0.3c-3.13,5.19-2.86,11.47-0.49,16.9c2.59,5.94,7.47,10.32,13.36,12.9
			c6.59,2.89,13.85,3.69,20.97,3.91c7.89,0.24,15.81-0.06,23.66-0.89c8.04-0.86,16.02-2.27,23.84-4.32
			c6.7-1.76,13.94-3.63,19.81-7.45c5.37-3.49,8.74-8.8,7.5-15.37c-1.28-6.79-6.1-12.91-11.04-17.51
			c-5.15-4.79-11.13-8.63-17.18-12.18c-6.47-3.8-13.18-7.19-20.06-10.18c-13.63-5.91-27.88-10.29-42.45-13.19
			c-30.4-6.05-61.69-5.66-92.19-0.62c-15.8,2.61-31.39,6.46-46.68,11.24c-7.73,2.42-15.39,5.08-22.96,7.95
			c-5.9,2.24-12.67,4.36-17,9.22c-1.87,2.1-3,4.55-3.24,7.36C46.07,108.65,49.07,108.64,49.23,106.73L49.23,106.73z"/>
	</g>
</g>
<g>
	<g>
		<path class="st0" d="M83.9,98.22c9.24-8.78,22.16-14.2,34.99-13.9c1.51,0.04,3.08,0.19,4.48,0.83c1.57,0.72,2.63,2.05,3.46,3.53
			c1.67,2.96,2.88,6.24,4.19,9.38c2.84,6.84,5.46,13.78,7.84,20.8c2.68,7.91,5.06,15.93,7.15,24.02c0.48,1.87,3.38,1.08,2.89-0.8
			c-3.93-15.27-8.93-30.26-14.98-44.81c-1.4-3.37-2.69-6.91-4.49-10.1c-1.73-3.06-4.33-5.07-7.84-5.61
			c-3.37-0.52-6.89-0.19-10.25,0.28c-3.38,0.47-6.72,1.26-9.95,2.38c-7.3,2.52-14,6.57-19.6,11.89
			C80.38,97.43,82.5,99.55,83.9,98.22L83.9,98.22z"/>
	</g>
</g>
<g>
	<g>
		<path class="st0" d="M82.86,54.76c19.77,13.63,41.76,23.49,63.72,33c23.37,10.12,46.65,20.42,69.74,31.16
			c13.08,6.08,26.1,12.28,39.07,18.59c1.73,0.84,3.25-1.74,1.51-2.59c-23.14-11.26-46.45-22.16-69.92-32.69
			C175.46,97.07,163.89,92,152.3,87c-11.08-4.79-22.17-9.59-33.04-14.87c-12.06-5.86-23.84-12.34-34.9-19.96
			C82.78,51.07,81.28,53.67,82.86,54.76L82.86,54.76z"/>
	</g>
</g>
<g>
	<g>
		<path class="st0" d="M50.83,87.03c13.4,7.17,28.23,9.24,43.04,11.53c13.53,2.09,26.74,5.33,39.69,9.79
			c7.26,2.5,14.4,5.3,21.47,8.28c-0.72-0.3-1.43-0.6-2.15-0.91c15.66,6.62,30.93,14.11,46.31,21.36
			c15.9,7.5,31.97,14.77,48.59,20.57c8.96,3.13,18.08,5.79,27.35,7.78c2.36,0.51,4.81,0.34,6.94-0.91c1.87-1.09,3.65-3.23,4.14-5.38
			c1.03-4.53-1.36-10.01-6.29-11.07c-16.4-3.53-32.24-9.16-47.67-15.66c0.72,0.3,1.43,0.6,2.15,0.91
			c-21.5-9.08-42.24-19.81-63.56-29.3c-21.87-9.73-44.34-18.25-68.05-22.16c-13.44-2.22-27.24-3.5-39.91-8.83
			c0.72,0.3,1.43,0.6,2.15,0.91c-1.74-0.74-3.44-1.56-5.11-2.45c-4.15-2.22-9.98-1.18-12.31,3.23
			C45.39,78.89,46.39,84.66,50.83,87.03L50.83,87.03z"/>
	</g>
</g>
<circle class="st1" cx="157.5" cy="89.5" r="46.5"/>
<rect x="59" y="154" class="st2" width="128" height="128"/>
<g>
	<g>
		<path class="st1" d="M237.74,118.61c20.95,20.95,41.91,41.91,62.86,62.86c5.89,5.89,11.77,11.77,17.66,17.66
			c0.71-0.71,1.41-1.41,2.12-2.12c-1.02-1.02-2.04-2.04-3.05-3.05c-1.37-1.37-3.49,0.75-2.12,2.12c1.02,1.02,2.04,2.04,3.05,3.05
			c1.37,1.37,3.49-0.75,2.12-2.12c-20.95-20.95-41.91-41.91-62.86-62.86c-5.89-5.89-11.77-11.77-17.66-17.66
			C238.5,115.12,236.37,117.24,237.74,118.61L237.74,118.61z"/>
	</g>
</g>
<g>
	<g>
		<path class="st1" d="M234.91,189.26c4,1.25,8.18,0.57,12.06-0.77c3.94-1.36,7.73-3.21,11.54-4.91c7.63-3.4,15.22-6.89,22.61-10.79
			c14.05-7.42,27.49-16.47,37.96-28.56c9.64-11.13,16.71-24.62,18.38-39.38c1.01-8.93,0.13-18.07-1.08-26.94
			c-0.61-4.44-1.43-8.85-2.68-13.16c-1.01-3.49-2.36-7-4.49-9.98c-2.24-3.13-5.17-5.37-8.77-6.71c-3.87-1.45-8.19-1.95-12.3-2.16
			c-7.86-0.39-15.81,1.1-22.61,5.17c-11.77,7.04-18.79,19.9-22.98,32.56c-5.35,16.17-7.17,33.59-6.99,50.55
			c0.18,17.51,2.58,35.03,6.5,52.08c3.88,16.91,9.39,33.48,16.51,49.3c3.06,6.81,6.84,13.61,13.18,17.88
			c6.21,4.17,13.9,5.19,21.22,5.12c3.73-0.04,7.44-0.35,11.15-0.7c1.91-0.18,1.92-3.18,0-3c-7.11,0.68-14.47,1.33-21.52-0.18
			c-3.46-0.74-6.76-2.02-9.67-4.05c-2.97-2.07-5.34-4.91-7.27-7.94c-4.15-6.52-6.96-14-9.72-21.19c-2.98-7.75-5.59-15.64-7.83-23.63
			c-4.53-16.15-7.62-32.76-8.92-49.49c-1.31-16.82-0.76-33.87,2.69-50.42c2.77-13.27,7.28-27.06,16.63-37.24
			c4.39-4.79,9.85-8.54,16.12-10.38c3.94-1.16,8.05-1.58,12.14-1.48c3.9,0.09,7.91,0.53,11.65,1.69c3.59,1.12,6.56,3.24,8.64,6.39
			c2,3.03,3.19,6.49,4.12,9.97c2.23,8.3,3.2,17.04,3.59,25.61c0.36,7.86-0.28,15.63-2.63,23.17c-2.08,6.68-5.3,12.97-9.24,18.74
			c-8.4,12.32-20.01,21.98-32.63,29.73c-6.79,4.17-13.87,7.83-21.05,11.25c-3.64,1.73-7.31,3.4-10.98,5.04
			c-3.7,1.65-7.39,3.43-11.19,4.84c-3.64,1.35-7.51,2.27-11.33,1.08C233.86,185.79,233.07,188.69,234.91,189.26L234.91,189.26z"/>
	</g>
</g>
<g>
	<g>
		<path class="st1" d="M234.9,76.86c0.77-8.97,6.38-16.84,13.34-22.24c7.85-6.1,17.47-9.61,26.86-12.58
			c18.39-5.81,39.38-8.66,56.77,1.6c3.9,2.3,7.45,5.18,10.42,8.61c1.48,1.71,2.78,3.56,3.9,5.53c0.56,0.99,1.08,2.01,1.53,3.05
			c0.24,0.54,0.45,1.1,0.66,1.66c0.08,0.22,0.14,0.47,0.24,0.69c0.02,0.09,0.05,0.18,0.07,0.27c-0.05,0.4,0.1,0.29,0.44-0.36
			c-1.29,0.27-1.43,2.13-0.36,2.74c13.35,7.69,23.7,19.89,29.79,33.99c3.03,7.03,4.99,14.6,5.64,22.24
			c0.33,3.83,0.35,7.69,0.03,11.53c-0.35,4.27-0.98,8.76-3.22,12.49c-4.45,7.4-13.63,10.25-21.4,12.62c-0.93,0.28-1.39,1.34-0.9,2.2
			c9,15.8,15.38,32.99,18.89,50.83c0.37,1.89,3.26,1.09,2.89-0.8c-3.56-18.08-10.07-35.54-19.19-51.54c-0.3,0.73-0.6,1.47-0.9,2.2
			c7.47-2.27,15.69-4.94,20.99-11.01c5.75-6.58,6.28-16.33,6.02-24.68c-0.5-16.2-6.53-32.01-16.52-44.72
			c-5.67-7.21-12.67-13.35-20.63-17.93c-0.12,0.91-0.24,1.83-0.36,2.74c2.62-0.54,1.61-3.66,0.95-5.31
			c-0.81-2.01-1.77-3.95-2.93-5.79c-2.37-3.76-5.41-7.09-8.87-9.87c-7.25-5.82-16.07-9.41-25.26-10.66
			c-11.44-1.56-23.05,0.15-34.11,3.19c-10.43,2.87-21.25,6.5-30.31,12.56c-9.16,6.13-16.54,15.48-17.51,26.76
			C231.74,78.79,234.74,78.78,234.9,76.86L234.9,76.86z"/>
	</g>
</g>
<g>
	<g>
		<path class="st1" d="M76.63,94.73c-8.08-4.09-15.16-10.08-20.47-17.42c-5.17-7.16-9.22-15.82-9.36-24.79
			c-0.08-4.86,1.11-9.78,4.31-13.55c-0.71,0-1.41,0-2.12,0c4.86,4.82,3.35,12.66-0.58,17.52c-4.72,5.83-12.11,9.3-18.95,11.96
			c-7.48,2.9-15.27,4.91-22.92,7.32c-1.49,0.47-3.25,0.91-4.17,2.3c-0.97,1.48-0.51,3.17,0.54,4.45c1.17,1.43,2.79,2.56,4.13,3.84
			c1.43,1.37,2.81,2.8,4.12,4.28c10.57,11.98,15.25,27.48,23.64,40.84c3.65,5.81,8.99,11.44,16.47,10.78
			c7.67-0.67,14.07-6.36,19.58-11.25c11.11-9.87,20.45-21.8,27.36-34.97c0.87-1.66,1.7-3.33,2.49-5.03c0.46-0.98-0.07-2.29-1.3-2.26
			c-5.79,0.14-11.58,0.12-17.37-0.06c-2.98-0.09-5.95-0.23-8.92-0.4c-2.56-0.15-5.19-0.21-7.72-0.72c-2.23-0.45-4.3-1.32-5.82-3.06
			c-1.32-1.51-2.03-3.46-2.49-5.38c-0.49-2.05-0.67-4.16-0.79-6.26c-0.13-2.39-0.38-4.88,1.55-6.63c1.78-1.62,4.21-2.74,6.32-3.87
			c2.32-1.23,4.7-2.36,7.13-3.36c2.41-0.99,4.87-1.87,7.37-2.64c1.2-0.37,2.41-0.72,3.63-1.02c1-0.25,2.41-0.62,3.26,0.2
			c1.16,1.13,0.7,3.42,0.39,4.8c-0.6,2.66-1.4,5.29-2.29,7.87c-1.74,5.06-3.93,9.95-6.31,14.74c-2.62,5.26-5.34,10.53-8.31,15.6
			c-2.73,4.66-6.87,9.61-12.86,8.95c-1.92-0.21-1.9,2.79,0,3c5.67,0.62,10.45-3.16,13.58-7.51c1.71-2.38,3.05-5.01,4.44-7.58
			c1.45-2.68,2.9-5.37,4.3-8.09c2.74-5.33,5.3-10.76,7.37-16.38c1.05-2.85,1.97-5.75,2.71-8.69c0.54-2.14,1.05-4.51,0.36-6.68
			c-1.88-6-9.6-2.65-13.62-1.28c-5.62,1.92-11.06,4.41-16.17,7.45c-2.25,1.34-4.55,2.8-5.45,5.4c-0.85,2.46-0.47,5.34-0.24,7.88
			c0.41,4.54,1.41,9.61,5.11,12.67c2.36,1.95,5.25,2.73,8.24,3.1c3.4,0.42,6.85,0.54,10.27,0.7c7.44,0.35,14.88,0.42,22.33,0.25
			c-0.43-0.75-0.86-1.5-1.3-2.26c-6.19,13.19-14.71,25.23-25.13,35.42c-2.58,2.52-5.26,4.92-8.05,7.2
			c-2.97,2.42-6.15,4.83-9.77,6.18c-3.36,1.25-6.99,1.45-10.2-0.32c-2.93-1.61-5.12-4.3-6.94-7.05c-4.2-6.35-7.34-13.38-10.71-20.18
			c-3.41-6.89-7.08-13.67-11.9-19.69c-2.38-2.98-5.02-5.76-7.86-8.3c-0.67-0.6-1.38-1.15-2.01-1.78c-0.51-0.51-1.03-1.06-0.28-1.54
			c0.6-0.39,1.4-0.54,2.08-0.76c1-0.32,2-0.62,3.01-0.93c7.52-2.28,15.13-4.35,22.4-7.4c6.53-2.74,13.4-6.24,17.91-11.88
			c4.01-5.02,5.81-11.86,3.06-17.92c-0.63-1.38-1.52-2.62-2.6-3.69c-0.54-0.54-1.59-0.62-2.12,0c-6.33,7.48-6.12,18-3.22,26.88
			c3.01,9.2,8.73,17.62,15.81,24.17c4.05,3.75,8.61,6.93,13.54,9.42C76.84,98.19,78.36,95.6,76.63,94.73L76.63,94.73z"/>
	</g>
</g>
</svg>
